<?xml version="1.0" encoding="utf-8"?>
<!-- Generator: Adobe Illustrator 19.1.0, SVG Export Plug-In . SVG Version: 6.00 Build 0)  -->
<!DOCTYPE svg PUBLIC "-//W3C//DTD SVG 1.1//EN" "http://www.w3.org/Graphics/SVG/1.1/DTD/svg11.dtd">
<svg version="1.1" id="Layer_1_xA0_Image_1_" xmlns="http://www.w3.org/2000/svg" xmlns:xlink="http://www.w3.org/1999/xlink"
	 x="0px" y="0px" viewBox="123 -12.127 274.804 71.605" enable-background="new 123 -12.127 274.804 71.605" xml:space="preserve">
<g>
	<g>
		<path d="M228.464,36.123L241.277,24h-16.845l-5.987-20.252L212.442,24h-16.805l12.768,12.133l-5.606,20.591l-20.829,0.734
			l22.25-67.75h27.875l22.625,67.75l-20.672-0.734L228.464,36.123z"/>
		<path d="M231.924-9.362l11.195,33.686l-1.841-0.323h-16.845l-5.987-20.252l-6.003,20.252h-16.806l-1.983,0.185l11.151-33.548
			H231.924 M195.637,24l12.768,12.133l-5.601,20.581H182.84l10.813-32.529 M243.119,24.323l10.765,32.391h-19.867l-5.553-20.591
			L241.277,24L243.119,24.323 M233.006-10.862h-29.283l-22.962,69.076h21.646l5.998-22.081L195.637,24h16.806l6.003-20.252
			L224.433,24h16.845l-12.814,12.123l5.964,22.091h21.535L233.006-10.862L233.006-10.862z"/>
	</g>
</g>
<g>
	<path d="M123.845-10.167l63.375-0.125l-0.375,15.875L165.72,5.708l-0.375,51.875H145.72l-0.375-51.875L123.47,5.333L123.845-10.167
		z"/>
	<path d="M186.383-9.362V4.695h-20.269h-1.5v1.5v50.519H146.27V6.195v-1.5h-1.5H124.5V-9.362H186.383 M187.883-10.862H123V6.195
		h21.77v52.019h21.345V6.195h21.769v-17.057H187.883z"/>
</g>
<g display="none">
	<path display="inline" d="M305.451,29.821l16.886,5.104c-1.257,5.246-1.978,9.641-4.679,13.158
		c-2.702,3.519-5.526,6.35-9.531,8.141s-9.069,3.047-15.257,3.047c-7.509,0-13.642-1.091-18.4-3.272s-8.866-6.019-12.321-11.513
		c-3.456-5.493-5.184-12.525-5.184-21.096c0-11.427,3.039-20.208,9.118-26.346c6.078-6.137,14.677-9.206,25.798-9.206
		c8.7,0,15.541,1.76,20.52,5.277c4.979,3.519,8.678,8.922,11.097,16.209l-18.848,4.194c-0.659-2.104-1.351-3.644-2.073-4.618
		c-1.194-1.633-2.654-2.89-4.382-3.77c-1.728-0.879-3.66-1.319-5.796-1.319c-4.838,0-8.545,1.946-11.12,5.836
		c-1.948,2.887-2.921,7.421-2.921,13.601c0,7.656,1.161,12.904,3.486,15.743c2.324,2.84,5.591,4.259,9.801,4.259
		c4.083,0,7.17-1.146,9.259-3.439S304.507,34.187,305.451,29.821z"/>
</g>
<path d="M305.47,23.176"/>
<g>
	<g>
		<path d="M256.964,23.666c0-7.958,1.757-35.793,34.465-35.793s32.708,27.835,32.708,27.835l-19.542-0.042
			c0,0-0.166-10.042-13.166-10.042s-13.041,10.042-13.041,18.041c0,8,0,17.949,13.041,17.949c13.041,0,13.041-9.949,13.041-9.949
			h19.667c0,0,0.001,27.812-32.708,27.812S256.964,31.625,256.964,23.666z"/>
		<path d="M291.429-10.627c12.939,0,22.112,4.398,27.264,13.071c2.774,4.672,3.598,9.416,3.842,11.76l-16.637-0.035
			c-0.636-3.106-3.306-10.044-14.469-10.044c-14.541,0-14.541,11.76-14.541,19.541c0,7.745,0,19.449,14.541,19.449
			c11.17,0,13.761-6.844,14.36-9.949h16.749c-0.237,2.317-1.044,6.989-3.782,11.646c-5.138,8.737-14.331,13.167-27.327,13.167
			c-29.753,0-32.965-23.996-32.965-34.312C258.464,13.355,261.676-10.627,291.429-10.627 M291.429-12.127
			c-32.708,0-34.465,27.835-34.465,35.793c0,7.959,1.756,35.812,34.465,35.812s32.708-27.812,32.708-27.812H304.47
			c0,0,0,9.949-13.041,9.949c-13.041,0-13.041-9.949-13.041-17.949s0.041-18.041,13.041-18.041s13.166,10.042,13.166,10.042
			l19.542,0.042C324.137,15.708,324.137-12.127,291.429-12.127L291.429-12.127z"/>
	</g>
	<g>
		<path d="M258.47,23.708c1.979,0,16.688-0.021,18.521-0.021c0,8,1.375,18.958,14.416,18.958c13.041,0,13.375-10.25,13.375-10.25
			l18.563-0.062c0,0-0.312,26.438-31.625,26.5C259.011,58.898,258.47,31.667,258.47,23.708z"/>
		<path d="M276.888,23.666c-0.002,0.459,0.02,0.813,0.004,1.512c0.054,7.666,0.915,17.938,14.537,17.938
			c11.17,0,13.761-6.844,14.36-9.949h16.749c-0.237,2.317-1.044,6.989-3.782,11.646c-5.138,8.737-14.331,13.167-27.327,13.167
			c-28.395,0-32.616-21.854-32.942-32.816c-0.017-0.267-0.017-1.12-0.022-1.496 M258.729,23.662c-0.872,0-1.495,0.001-1.765,0.004
			c0,7.959,1.756,35.812,34.465,35.812s32.708-27.812,32.708-27.812H304.47c0,0,0,9.949-13.041,9.949
			c-13.041,0-13.041-9.949-13.041-17.949c-0.455,0.011-2.026,0.015-4.13,0.015C269.552,23.681,262.186,23.662,258.729,23.662
			L258.729,23.662z"/>
	</g>
</g>
<g>
	<g>
		<path d="M330.631,23.666c0-7.958,1.757-35.793,34.465-35.793s32.708,27.835,32.708,27.835l-19.542-0.042
			c0,0-0.166-10.042-13.166-10.042c-13,0-13.041,10.042-13.041,18.041c0,8,0,17.949,13.041,17.949
			c13.041,0,13.041-9.949,13.041-9.949h19.667c0,0,0.001,27.812-32.708,27.812S330.631,31.625,330.631,23.666z"/>
		<path d="M365.096-10.627c12.939,0,22.112,4.398,27.264,13.071c2.774,4.672,3.598,9.416,3.842,11.76l-16.637-0.035
			c-0.636-3.106-3.306-10.044-14.469-10.044c-14.541,0-14.541,11.76-14.541,19.541c0,7.745,0,19.449,14.541,19.449
			c11.17,0,13.761-6.844,14.36-9.949h16.749c-0.237,2.317-1.044,6.989-3.782,11.646c-5.138,8.737-14.331,13.167-27.327,13.167
			c-29.753,0-32.965-23.996-32.965-34.312C332.131,13.355,335.343-10.627,365.096-10.627 M365.096-12.127
			c-32.708,0-34.465,27.835-34.465,35.793c0,7.959,1.756,35.812,34.465,35.812s32.708-27.812,32.708-27.812h-19.667
			c0,0,0,9.949-13.041,9.949c-13.041,0-13.041-9.949-13.041-17.949s0.041-18.041,13.041-18.041s13.166,10.042,13.166,10.042
			l19.542,0.042C397.804,15.708,397.804-12.127,365.096-12.127L365.096-12.127z"/>
	</g>
	<g>
		<path d="M332.117,23.713c1.791,0.011,16.604,0.042,18.479,0c0,8,1.521,18.808,14.562,18.808c13.041,0,13.562-10,13.562-10
			l18.25-0.188c0,0,1.146,26.312-31.562,26.312S332.117,31.672,332.117,23.713z"/>
		<path d="M350.555,23.666c-0.002,0.459,0.02,0.813,0.004,1.512c0.054,7.666,0.915,17.938,14.537,17.938
			c11.17,0,13.761-6.844,14.36-9.949h16.749c-0.237,2.317-1.044,6.989-3.782,11.646c-5.138,8.737-14.331,13.167-27.327,13.167
			c-28.395,0-32.616-21.854-32.942-32.816c-0.017-0.267-0.017-1.12-0.022-1.496 M332.396,23.662c-0.871,0-1.495,0.001-1.765,0.004
			c0,7.959,1.756,35.812,34.465,35.812s32.708-27.812,32.708-27.812h-19.667c0,0,0,9.949-13.041,9.949
			c-13.041,0-13.041-9.949-13.041-17.949c-0.455,0.011-2.026,0.015-4.13,0.015C343.219,23.681,335.853,23.662,332.396,23.662
			L332.396,23.662z"/>
	</g>
</g>
</svg>
